# xmcd CD database file
#
# Track frame offsets:
#	150
#	26717
#	51562
#	77975
#	100404
#	129217
#	155434
#	179967
#	200467
#	226982
#
# Disc length: 3252 seconds
#
# Revision: 1
# Processed by: cddbd v1.5.1PL0 Copyright (c) Steve Scherf et al.
# Submitted via: CDex 1.51
#
DISCID=8b0cb20a
DTITLE=Manhattan Trinity - Charade
DYEAR=2005
DGENRE=Jazz
TTITLE0=Charade
TTITLE1=Stolen Moments
TTITLE2=I Remember Clifford
TTITLE3=Five Spot After Dark
TTITLE4=Round Midnight
TTITLE5=Yesterdays
TTITLE6=A Nightingale Sang In Berkely Square
TTITLE7=You Better Go Now
TTITLE8=Jordu
TTITLE9=Lotus Blossom
EXTD=YEAR: 2005
EXTT0=
EXTT1=
EXTT2=
EXTT3=
EXTT4=
EXTT5=
EXTT6=
EXTT7=
EXTT8=
EXTT9=
PLAYORDER=
